<?xml version="1.0" encoding="utf-8"?>
<!-- Generator: Adobe Illustrator 25.1.0, SVG Export Plug-In . SVG Version: 6.00 Build 0)  -->
<svg version="1.1" id="Capa_1" xmlns="http://www.w3.org/2000/svg" xmlns:xlink="http://www.w3.org/1999/xlink" x="0px" y="0px"
	 viewBox="0 0 48 48" style="enable-background:new 0 0 48 48;" xml:space="preserve">
<style type="text/css">
	.st0{fill:#FAFAFA;}
	.st1{fill:#EE2A7B;}
</style>
<circle class="st0" cx="22.7" cy="22.7" r="22.7"/>
<g id="Capa_2_1_">
	<g id="Layer">
		<g id="_19_location">
			<path class="st1" d="M22.7,32c-0.2,0-0.4-0.1-0.5-0.3c-0.3-0.5-6.7-11.4-6.7-15.1c0-3.9,3.2-7.1,7.2-7.1c3.9,0,7.1,3.2,7.1,7.1
				c0,3.8-6.4,14.7-6.7,15.1C23.1,31.9,22.9,32,22.7,32z M22.7,10.6c-3.3,0-6.1,2.7-6.1,6c0,2.9,4.5,11.1,6.1,13.7
				c1.5-2.6,6-10.8,6-13.7C28.7,13.3,26,10.6,22.7,10.6z"/>
			<path class="st1" d="M22.7,19.4c-1.8,0-3.3-1.5-3.3-3.3s1.5-3.3,3.3-3.3c1.8,0,3.3,1.5,3.3,3.3S24.5,19.4,22.7,19.4z M22.7,13.9
				c-1.2,0-2.2,1-2.2,2.2s1,2.2,2.2,2.2c1.2,0,2.2-1,2.2-2.2S23.9,13.9,22.7,13.9z"/>
			<path class="st1" d="M35.3,35.9H10c-0.2,0-0.4-0.1-0.5-0.3c-0.1-0.2-0.1-0.4,0-0.6l5.5-7.7c0.1-0.1,0.3-0.2,0.4-0.2h3.3
				c0.3,0,0.5,0.2,0.5,0.5c0,0.3-0.2,0.6-0.5,0.6h-3l-4.7,6.6h23.2l-4.7-6.6h-3c-0.3,0-0.5-0.2-0.5-0.6c0-0.3,0.2-0.5,0.5-0.5h3.3
				c0.2,0,0.3,0.1,0.4,0.2l5.5,7.7c0.1,0.2,0.1,0.4,0,0.6C35.7,35.8,35.5,35.9,35.3,35.9z"/>
		</g>
	</g>
</g>
</svg>
