<?xml version="1.0" encoding="utf-8"?>
<!-- Generator: Adobe Illustrator 25.1.0, SVG Export Plug-In . SVG Version: 6.00 Build 0)  -->
<svg version="1.1" id="Capa_1" xmlns="http://www.w3.org/2000/svg" xmlns:xlink="http://www.w3.org/1999/xlink" x="0px" y="0px"
	 viewBox="0 0 45.2 45.2" style="enable-background:new 0 0 45.2 45.2;" xml:space="preserve">
<style type="text/css">
	.st0{fill:#FAFAFA;}
	.st1{fill:none;stroke:#EE2A7B;stroke-width:2;stroke-miterlimit:10;}
	.st2{fill:#EE2A7B;}
</style>
<circle class="st0" cx="22.7" cy="22.7" r="22.7"/>
<g id="Capa_2_1_">
	<g id="Layer">
		<g id="om368I">
			<path class="st1" d="M11.1,34.1c0.6-1.4,1-2.7,1.5-3.9c0.2-0.4,0.2-1-0.1-1.4c-2.5-4.4-2.5-8.9,0.5-13s7.2-5.8,12.2-4.6
				s8.1,4.4,9,9.4c0.9,4.8-0.8,8.8-4.8,11.7s-8.3,3-12.6,0.7c-0.6-0.4-1.3-0.4-1.9-0.1C13.7,33.2,12.5,33.6,11.1,34.1z"/>
			<path class="st2" d="M19.1,17c0.1,0.2,0.3,0.3,0.5,0.4c0.1,0.1,0.1,0.1,0.2,0.2c0.4,0.3,0.8,0.7,1.1,1.1
				c-0.2,0.5-0.5,0.9-0.8,1.3l0,0c-0.5,0.6-0.5,1.4,0,2l0.2,0.2c0.9,1.1,1.9,2,3.2,2.7c0.3,0.2,0.6,0.3,1,0.3c0.5,0,0.9-0.2,1.3-0.5
				c0.6-0.5,0.8-0.5,0.8-0.5s0.2,0.1,0.8,0.6l0,0l0,0c0.5,0.5,0.9,1.1,0.8,1.4c0,0.1-0.2,0.5-1.3,1.1c-0.3,0.1-0.6,0.2-0.9,0.3
				l-0.2,0c-0.3-0.1-0.5-0.1-0.8-0.2c-3.4-1.2-6.1-3.9-7.3-7.3C17.2,19,17.8,17.6,19.1,17L19.1,17 M19.2,15.9
				c-0.2,0-0.4,0.1-0.6,0.2c-1.8,0.8-2.6,2.8-1.9,4.6c1.3,3.7,4.2,6.6,7.9,7.9c0.4,0.2,0.9,0.2,1.2,0.3c0.5,0,1-0.2,1.5-0.4
				c2.3-1.1,2.5-2.5,0.8-4.2L28,24.2c-0.6-0.6-1.1-1-1.6-1c-0.6,0.1-1.1,0.3-1.5,0.7c-0.2,0.1-0.3,0.2-0.5,0.2
				c-0.2,0-0.3-0.1-0.5-0.1c-1.3-0.6-2.2-1.7-3.1-2.7c-0.3-0.3-0.1-0.4,0.1-0.7c1.5-2,1.4-2.2-0.4-3.9c-0.2-0.2-0.4-0.4-0.6-0.5
				C19.8,16,19.5,15.9,19.2,15.9L19.2,15.9z"/>
		</g>
	</g>
</g>
</svg>
